name processed_emg_signals
nRows=99
nColumns=7
 
endheader
time	LGLTMED	LRF	LADDLONG	LST	LTA	LGM
1.927	0.6028002780201699	0.3308908180078302	0.2942532540842255	0.0816942792880944	0.4176592861302378	0.1451084938661354
1.928	0.6063528493517069	0.3250387254057119	0.2930580865151762	0.0816776177118388	0.4185315350909361	0.1466889585516016
1.929	0.6097593584622948	0.3192860402028642	0.2918618451771345	0.0816573782050604	0.419364306845957	0.1482664276857449
1.93	0.6130132591027587	0.3136384414219461	0.2906660417086514	0.081633633469072	0.4201576289571429	0.1498396686998898
1.931	0.6161081916454246	0.3081015406706579	0.2894722024165314	0.0816064669209065	0.4209115884091921	0.1514074706330049
1.932	0.6190379958475232	0.3026808774444032	0.2882818659149588	0.0815759723406683	0.4216263320653466	0.1529686443220295
1.933	0.6217967231729031	0.2973819145179092	0.2870965807183742	0.081542253504369	0.4223020669344485	0.1545220224867133
1.934	0.6243786486242385	0.2922100334274735	0.2859179027961163	0.0815054238032427	0.4229390602514537	0.1560664597137766
1.935	0.6267782820389127	0.2871705300453335	0.2847473930971165	0.081465605850395	0.4235376393756254	0.1576008323465546
1.936	0.6289903788033713	0.2822686102474509	0.2835866150533581	0.08142293107571	0.4240981915120936	0.1591240382874569
1.937	0.6310099499432344	0.2775093856757907	0.2824371320706208	0.0813775393097541	0.4246211632633775	0.1606349967213538
1.938	0.6328322715504987	0.2728978695965079	0.281300505014902	0.0813295783575765	0.4251070600180013	0.1621326477684556
1.939	0.6344528935138847	0.2684389728549998	0.2801782897024777	0.0812792035629418	0.4255564451836526	0.1636159520754336
1.94	0.6358676475231992	0.2641374999289108	0.2790720344011217	0.0812265773638119	0.4259699392726424	0.165083890353441
1.941	0.6370726543244619	0.2599981450800709	0.2779832773495458	0.0811718688395318	0.4263482188472539	0.1665354628714485
1.942	0.6380643302087571	0.2560254886061606	0.2769135443017925	0.0811152532504014	0.4266920153326634	0.1679696889128513
1.943	0.638839392724636	0.2522239931931132	0.2758643461027064	0.0810569115700805	0.4270021137047137	0.1693856062028463
1.944	0.6393948656099967	0.2485980003689904	0.2748371763002876	0.0809970300113761	0.4272793510594517	0.1707822703135154
1.945	0.6397280829451597	0.2451517270600779	0.2738335088001422	0.0809357995457315	0.4275246150706379	0.1721587540530877
1.946	0.6398366925348705	0.241889262249389	0.272854795566953	0.0808734154168482	0.4277388423405016	0.1735141468452693
1.947	0.639718658532827	0.2388145637373726	0.2719024643773669	0.0808100766486523	0.4279230166484367	0.1748475541039765
1.948	0.6393722633271403	0.2359314550039466	0.2709779166285006	0.0807459855479818	0.4280781671017362	0.1761580966082539
1.949	0.6387961087094756	0.2332436221703335	0.2700825252057334	0.0806813472023849	0.4282053661920862	0.1774449098815586
1.95	0.637989116353888	0.2307546110586599	0.269217632413227	0.080616368973414	0.4283057277611338	0.1787071435790977
1.951	0.6369505276333893	0.2284678243471134	0.2683845479699137	0.0805512599859377	0.4283804048785598	0.1799439608865067
1.952	0.6356799028034558	0.2263865188180736	0.2675845470734645	0.0804862306140812	0.4284305876362176	0.1811545379327869
1.953	0.6341771195818289	0.2245138026971263	0.2668188685342109	0.0804214919643917	0.4284575008624444	0.1823380632201541
1.954	0.6324423711537209	0.2228526330809743	0.2660887129807878	0.0803572553570997	0.4284624017611076	0.1834937370732709
1.955	0.6304761636306713	0.2214058134529606	0.2653952411393611	0.0802937318064541	0.4284465774803122	0.1846207711101912
1.956	0.6282793129902993	0.2201759912851389	0.2647395721882181	0.0802311315013259	0.4284113426161834	0.1857183877374534
1.957	0.625852941522335	0.2191656557262734	0.2641227821899319	0.0801696632874818	0.4283580366572552	0.1867858196720476
1.958	0.6231984738046973	0.2183771353752789	0.2635459026031041	0.080109534152941	0.4282880213752352	0.187822309493568
1.959	0.6203176322311682	0.2178125961401301	0.2630099188757378	0.0800509487177968	0.4282026781679673	0.1888271092303168
1.96	0.6172124321104668	0.2174740391827418	0.2625157691218936	0.0799941087297416	0.428103405360708	0.1897994799835733
1.961	0.6138851763544206	0.2173632989508568	0.262064342882736	0.0799392125663144	0.4279916154720981	0.1907386915943759
1.962	0.6103384497714438	0.2174820412985309	0.2616564799726328	0.0798864547448131	0.4278687324516421	0.1916440223573241
1.963	0.606575112980027	0.217831761697039	0.2612929694102722	0.0798360254405494	0.4277361888956958	0.192514758785861
1.964	0.6025982959557428	0.2184137835380376	0.2609745484341874	0.0797881100140845	0.4275954232489524	0.19335019543336
1.965	0.5984113912240779	0.2192292565306214	0.260701901601688	0.0797428885478458	0.4274478769983159	0.1941496347740252
1.966	0.5940180467102325	0.22027915519333	0.2604756599698852	0.0797005353925735	0.4272949918660624	0.1949123871472478
1.967	0.5894221582553341	0.2215642774421441	0.2602964003575125	0.0796612187239661	0.4271382070089999	0.1956377707685222
1.968	0.5846278618071429	0.2230852432749284	0.2601646446863891	0.0796251001098559	0.4269789562303028	0.196325111809447
1.969	0.5796395252924235	0.2248424935532943	0.2600808594016109	0.0795923340884907	0.4268186652104224	0.1969737445486874
1.97	0.5744617401781215	0.2268362888826936	0.2600454549696726	0.0795630677584784	0.426658748763132	0.1975830115951713
1.971	0.5690993127288492	0.2290667085923022	0.2600587854539314	0.0795374403811182	0.4265006081222676	0.1981522641841613
1.972	0.563557254969585	0.2315336498165021	0.2601211481671674	0.0795155829958744	0.4263456282645211	0.1986808625463305
1.973	0.5578407753641513	0.2342368266803901	0.2602327834012395	0.0794976180498594	0.4261951752734095	0.199168176349374
1.974	0.5519552692225193	0.2371757695924681	0.2603938742339345	0.0794836590421341	0.4260505937498242	0.1996135852111826
1.975	0.5459063088525561	0.2403498246482548	0.2606045464131369	0.0794738101837223	0.4259132042744543	0.2000164792830558
1.976	0.5396996334745318	0.243758153149264	0.2608648683183662	0.0794681660741893	0.4257843009271833	0.2003762599009199
1.977	0.5333411389194379	0.2473997312423775	0.2611748509997786	0.0794668113956801	0.4256651488682932	0.2006923403020604
1.978	0.5268368671348153	0.2512733496845284	0.2615344482948505	0.0794698206252532	0.4255569819860816	0.2009641464044727
1.979	0.5201929955235918	0.2553776137374818	0.2619435570229021	0.0794772577662077	0.4254610006152081	0.201191117645666
1.98	0.5134158261430158	0.2597109431968125	0.2624020172580319	0.0794891760990999	0.4253783693300574	0.2013727078774705
1.981	0.5065117747920502	0.2642715725583426	0.2629096126808101	0.0795056179529678	0.4253102148170375	0.2015083863132303
1.982	0.4994873600162439	0.2690575513244784	0.2634660710090947	0.0795266144972725	0.4252576238296278	0.2015976385235987
1.983	0.4923491920597544	0.2740667444521414	0.2640710645078609	0.079552185554904	0.4252216412297942	0.2016399674768983
1.984	0.4851039617938308	0.2792968329430358	0.2647242105774438	0.0795823394364804	0.4252032681193447	0.2016348946197155
1.985	0.4777584296510316	0.284745314576787	0.2654250724189162	0.0796170727960809	0.4252034600645079	0.2015819609930433
1.986	0.4703194145938179	0.290409504787056	0.2661731597745389	0.0796563705083076	0.4252231254167711	0.2014807283791229
1.987	0.46279378314516	0.2962865376808416	0.2669679297406504	0.0797002055666867	0.4252631237331178	0.2013307804741008
1.988	0.4551884385076723	0.3023733672012993	0.2678087876496972	0.0797485390031508	0.4253242642988753	0.2011317240818229
1.989	0.447510309796211	0.3086667684347353	0.2686950880176938	0.0798013198284512	0.4254073047565595	0.2008831903243534
1.99	0.4397663414075132	0.3151633390630682	0.2696261355529172	0.0798584849934366	0.4255129498435767	0.2005848358652488
1.991	0.4319634825487338	0.3218595009633835	0.2706011862213996	0.0799199593710372	0.4256418502409148	0.2002363441421787
1.992	0.4241086769451252	0.3287515019570959	0.2716194483642259	0.0799856557591062	0.425794601534249	0.1998374266063748
1.993	0.4162088527457835	0.3358354177111434	0.2726800838614635	0.0800554749039988	0.4259717432880699	0.1993878239675825
1.994	0.4082709126444906	0.3431071537941306	0.2737822093371191	0.0801293055448176	0.4261737582330921	0.1988873074443792
1.995	0.400301724231492	0.3505624478897203	0.2749248973996538	0.0802070244783169	0.426401071567084	0.1983356800206863
1.996	0.3923081105904714	0.358196872169996	0.2761071779129047	0.0802884966443851	0.4266540503697597	0.1977327777097258
1.997	0.3842968411534097	0.3660058358311384	0.2773280392926642	0.0803735752322907	0.4269330031333413	0.1970784708267343
1.998	0.376274622824832	0.3739845877940892	0.2785864298244442	0.0804621018077349	0.4272381794114009	0.1963726652714405
1.999	0.3682480913854926	0.382128219573068	0.2798812589980219	0.0805539064607979	0.4275697695892457	0.1956153038208516
2.0	0.360223803184571	0.3904316683148147	0.2812113988544534	0.0806488079747499	0.4279279047794569	0.1948063674323198
2.001	0.3522082271283506	0.3988897200117097	0.2825756853412543	0.0807466140155639	0.4283126568459784	0.1939458765562644
2.0020000000000002	0.3442077369725505	0.4074970128918274	0.2839729196714429	0.0808471213419826	0.4287240385595771	0.1930338924571862
2.003	0.3362286039248492	0.416248040989015	0.2854018696822514	0.0809501160359531	0.429162003886825	0.1920705185410554
2.004	0.3282769895633772	0.4251371578954889	0.2868612711895308	0.0810553737530612	0.4296264484137536	0.1910559016864697
2.005	0.320358939076607	0.4341585806989683	0.2883498293344179	0.0811626599926925	0.4301172099043095	0.1899902335765033
2.0060000000000002	0.3124803748293722	0.4433063941052603	0.2898662199195722	0.0812717303874921	0.4306340689924827	0.1888737520277786
2.007	0.3046470902590663	0.452574554746122	0.2914090907328339	0.0813823310117993	0.4311767500056883	0.1877067423128844
2.008	0.2968647441053862	0.4619568956710055	0.2929770628569401	0.0814941987086459	0.4317449219158979	0.1864895384719113
2.009	0.2891388549761942	0.4714471310201462	0.2945687319646426	0.0816070614350124	0.432338199413987	0.1852225246084836
2.0100000000000002	0.2814747962510878	0.4810388608754484	0.2961826695991618	0.081720638624804	0.4329561441021091	0.1839061361652933
2.011	0.2738777913236229	0.4907255762847313	0.2978174244407833	0.0818346415689629	0.4335982657981346	0.1825408611738148
2.012	0.2663529091823358	0.5005006644544284	0.2994715235611694	0.081948773811887	0.4342640239458732	0.1811272414727378
2.013	0.2589050603301095	0.5103574141054221	0.3011434736681984	0.0820627315632062	0.4349528291245202	0.1796658738895369
2.0140000000000002	0.2515389930407748	0.520289020986877	0.3028317623446659	0.0821762041237477	0.4356640446508052	0.1781574113797112
2.015	0.244259289950959	0.5302885935426422	0.3045348592849899	0.0822888743244759	0.4363969882670843	0.1766025641182735
2.016	0.2370703649847915	0.5403491587249623	0.3062512175341936	0.0824004189770646	0.4371509339084858	0.1750021005381106
2.017	0.2299764606079298	0.5504636679496849	0.3079792747336621	0.0825105093348191	0.4379251135419787	0.1733568483096803
2.0180000000000002	0.2229816454070673	0.560625003186861	0.3097174543782628	0.0826188115627432	0.4387187190702155	0.1716676952562931
2.019	0.2160898119902126	0.5708259831801388	0.3114641670892301	0.0827249872158203	0.4395309042931941	0.1699355901990514
2.02	0.2093046752025648	0.5810593697886336	0.3132178119070682	0.0828286937246935	0.4403607869211389	0.1681615437255474
2.021	0.2026297706524519	0.59131787444541	0.3149767776082349	0.0829295848884279	0.4412074506320968	0.1663466288767052
2.0220000000000002	0.1960684535414543	0.6015941647268702	0.3167394440489485	0.0830273113741628	0.4420699471674932	0.1644919817468299
2.023	0.1896238977924055	0.6118808710273564	0.3185041835388604	0.0831215212237821	0.4429472984586637	0.1625988019928449
2.024	0.1832990954687014	0.6221705933328407	0.3202693622469942	0.0832118603677949	0.4438384987772596	0.1606683532498524
2.025	0.1770968564779179	0.6324559080874773	0.3220333416418249	0.0832979731467054	0.4447425169028407	0.1587019634513252
